<svg width="960" height="960" xmlns="http://www.w3.org/2000/svg">

 <g>
  <title>Layer 1</title>
  <path id="svg_1" d="m326.39117,869.218q-29.788,0 -50.788,-21.213q-21,-21.212 -21,-51q0,-29.787 21.212,-50.787q21.213,-21 51,-21q29.788,0 50.788,21.212q21,21.212 21,51t-21.212,50.788q-21.213,21 -51,21zm400,0q-29.788,0 -50.788,-21.213q-21,-21.212 -21,-51q0,-29.787 21.212,-50.787q21.213,-21 51,-21q29.788,0 50.788,21.212q21,21.212 21,51t-21.212,50.788q-21.213,21 -51,21zm-441.048,-660l100.39,208.781l286.305,0l113.695,-208.781l-500.39,0zm-36.783,-72.436l572.681,0q30.433,0 46.31,27.218q15.878,27.218 0.487,55.001l-125.391,226.608q-12.131,20.13 -30.792,32.761q-18.661,12.63 -41.938,12.63l-298.966,0l-52.043,97.782l485.913,0l0,72.436l-488.218,0q-46.522,0 -66.718,-31.392q-20.195,-31.391 1.066,-69.217l62.304,-114.609l-148.609,-315.782l-80.26,0l0,-72.436l127.174,0l37,79zm137.173,281.217l286.305,0l-286.305,0z"/>
  <path transform="rotate(11.9309 531.864 316.208)" id="svg_6" d="m532.00934,315.6237c-0.0233,0.08186 -0.07934,0.1397 -0.14499,0.1397c-0.06569,0 -0.12175,-0.05784 -0.14499,-0.1397l-0.35503,0.21493l0.09988,0.33604l0.10971,-0.06644l0,0.68512l0.58472,0l0,-0.6827l0.10577,0.06406l0.09992,-0.33604l-0.35499,-0.21497l0,0z"/>
  <path transform="rotate(27.0525 512.178 303.358)" id="svg_7" d="m512.38508,302.85835c-0.03326,0.06999 -0.11326,0.11944 -0.20698,0.11944c-0.09378,0 -0.17379,-0.04945 -0.20698,-0.11944l-0.5068,0.18375l0.14258,0.2873l0.15661,-0.0568l0,0.58575l0.83468,0l0,-0.58368l0.15098,0.05477l0.14264,-0.2873l-0.50674,-0.18379l0,0z"/>
  <path fill="#444444" stroke="null" id="svg_8" d="m561.17681,213.74367c-4.82253,13.57735 -16.42302,23.17063 -30.01328,23.17063c-13.59871,0 -25.2017,-9.59327 -30.01353,-23.17063l-73.49069,35.64827l20.676,55.73684l22.70932,-11.01998l0,113.63487l121.0368,0l0,-113.23332l21.89395,10.62478l20.68396,-55.73679l-73.48253,-35.65465l0,-0.00001z"/>
 </g>
</svg>